<svg preserveAspectRatio="xMidYMid meet" data-bbox="-0.002 0.01 1017.222 280.83" viewBox="0 0 1017.22 280.84" xmlns="http://www.w3.org/2000/svg" data-type="ugc" role="presentation" aria-hidden="true" aria-label="">
    <g>
        <g>
            <path d="M26.3 94.52h17.21V34.27h68.87v20.08H60.73v40.17h34.43v20.08H60.73v80.33H43.51V114.6H34.9Z" fill="#6fbd37"></path>
            <path d="M106.35 94.52h17.22V34.27l34.43.2c18.77.2 34.09 18.27 34.09 40.16 0 21.29-14.29 38.56-32.19 40l33.4 80.33h-19.11l-33.4-80.13v80.13h-17.22V114.6H115Zm68.52-19.89c0-11-7.74-20.28-17.21-20.28h-16.87v40.17H158c9.3 0 16.87-8.84 16.87-19.89Z" fill="#6fbd37"></path>
            <path d="M191.58 94.52h17.21V34.27h68.87v20.08H226v40.17h34.43v20.08H226v60.24h51.65v20.09h-68.86V114.6h-8.6Z" fill="#6fbd37"></path>
            <path d="M289.37 174.84h18.42c12.4 0 16.53-18.67 10.5-32.13l-24.44-41.37c-7.58-11.44-11-23.29-8.27-36.75C289 46.72 302.63 34.27 318 34.27h16.87v20.08l-14.46.2c-8.26.2-16.18 5.22-18.08 15.26A25.3 25.3 0 0 0 304 84.27l30.3 52.62c13.78 24.3-1.54 58-25.65 58h-19.28Z" fill="#6fbd37"></path>
            <path d="M402.48 114.6h-34.43v80.33h-17.22V114.6h-8.61l-8.6-20.08h17.21V34.27h17.22v60.25h34.43V34.27h17.22v160.66h-17.22Z" fill="#6fbd37"></path>
            <path d="M426.28 96.7h17V36.45l34.06.2c18.57.2 33.72 18.27 33.72 40.16 0 22.1-15.32 40-34.06 40h-16.66v80.33h-17v-80.36h-8.54Zm67.78-19.89c0-11-7.66-20.28-17-20.28h-16.72V96.7h17c9.23 0 16.72-8.84 16.72-19.89Z" fill="#ec8625"></path>
            <path d="M513.65 96.7h17V36.45l34.06.2c18.56.2 33.72 18.27 33.72 40.16 0 21.29-14.13 38.56-31.85 40l33 80.33h-18.9l-33-80.13v80.13h-17v-80.36h-8.51Zm67.78-19.89c0-11-7.66-20.28-17-20.28h-16.72V96.7h17c9.23 0 16.72-8.84 16.72-19.89Z" fill="#ec8625"></path>
            <path d="M598 96.7h17V36.45h68.13v20.08H632V96.7h34.07v20.08H632V177h51.1v20.09H615v-80.31h-8.51Z" fill="#ec8625"></path>
            <path d="M694.69 177h18.22c12.26 0 16.35-18.67 10.39-32.13l-24.18-41.37c-7.5-11.44-10.9-23.29-8.18-36.75 3.41-17.87 16.86-30.32 32-30.32h16.69v20.1l-14.31.2c-8.17.2-16 5.22-17.88 15.26a25.46 25.46 0 0 0 1.71 14.46l30 52.62c13.62 24.3-1.53 58-25.38 58h-19.08Z" fill="#ec8625"></path>
            <path d="M756 177h18.23c12.26 0 16.34-18.67 10.38-32.13l-24.18-41.37c-7.49-11.44-10.9-23.29-8.17-36.75 3.4-17.87 16.86-30.32 32-30.32H801v20.1l-14.3.2c-8.18.2-16 5.22-17.88 15.26a25.46 25.46 0 0 0 1.7 14.46l30 52.62c13.63 24.3-1.53 58-25.37 58H756Z" fill="#ec8625"></path>
            <path d="M804 96.7h17V36.45h68.12v20.08h-51.03V96.7h34.06v20.08h-34.06V177h51.09v20.09h-68.12v-80.31h-8.51Z" fill="#ec8625"></path>
            <path d="M904.51 36.45h22.14c37.64 0 68.12 36 68.12 80.33s-30.48 80.33-68.12 80.33h-22.14Zm17 20.28V177h5.11c28.27 0 51.09-26.91 51.09-60.24s-22.82-60.25-51.09-60.25Z" fill="#ec8625"></path>
            <path d="M30.61 270.33c-1.51 6-6 10.45-14 10.45-10.54 0-15.77-7.86-15.77-17.69 0-9.45 5.27-18 16-18 8.39 0 12.84 4.81 13.83 10.62h-5.21c-1.14-3.58-3.52-6.4-8.87-6.4-7.38 0-10.37 6.7-10.37 13.6 0 6.63 2.8 13.62 10.57 13.62 5.27 0 7.47-3.1 8.65-6.22Z" fill="#6fbd37"></path>
            <path d="M72 262.79c0 9.57-5.44 18-16.44 18-10.36 0-16.06-7.91-16.06-17.87s5.9-17.81 16.5-17.81c9.81 0 16 7.3 16 17.68Zm-27.12 0c0 7.37 3.67 13.68 10.89 13.68 7.8 0 10.85-6.45 10.85-13.64s-3.46-13.41-10.86-13.41c-7.58.03-10.89 6.11-10.89 13.4Z" fill="#6fbd37"></path>
            <path d="M83 245.61h5.16V276h18l-.68 4.37H83Z" fill="#6fbd37"></path>
            <path d="M114.89 245.61h12.66c9.83 0 16.44 6.65 16.44 17s-6.44 17.74-16.62 17.74h-12.48ZM120 276h7c7.89 0 11.6-5.68 11.6-13.33 0-6.64-3.4-12.76-11.57-12.76h-7Z" fill="#6fbd37"></path>
            <path d="M171.44 245.61h13.4c6.88 0 11.58 3.84 11.58 10.22 0 6.92-5 10.48-11.83 10.48h-8v14h-5.18Zm5.18 16.39h7.6c4.52 0 6.91-2.14 6.91-6.08 0-4.11-2.83-6.08-6.73-6.08h-7.78Z" fill="#6fbd37"></path>
            <path d="M211.73 265.3v15h-5.09v-34.69h13.89c7.22 0 11.07 3.92 11.07 9.33 0 4.55-2.58 7.24-5.75 8.18 2.62.74 5.11 2.79 5.11 8.86v1.53c0 2.38-.09 5.34.47 6.83h-5c-.63-1.5-.62-4.19-.62-7.53v-.7c0-4.72-1.31-6.81-7.42-6.81Zm0-4.27H219c5.08 0 7.27-1.91 7.27-5.63 0-3.52-2.3-5.52-6.81-5.52h-7.77Z" fill="#6fbd37"></path>
            <path d="M265.27 264.34h-17.14V276H267l-.65 4.37h-23.26v-34.76h23V250h-17.96v10h17.14Z" fill="#6fbd37"></path>
            <path d="M280.11 270.57c.92 4 3.7 6.15 8.54 6.15 5.15 0 7.21-2.36 7.21-5.5 0-3.36-1.7-5.17-8.47-6.8-8.42-2-11.17-4.95-11.17-9.8 0-5.33 3.94-9.51 11.78-9.51 8.45 0 11.91 4.81 12.38 9.47h-5.23c-.57-2.91-2.36-5.4-7.32-5.4-4 0-6.28 1.78-6.28 4.93s1.87 4.33 7.87 5.77c9.94 2.4 11.77 6.24 11.77 10.78 0 5.74-4.27 10.12-12.89 10.12s-12.68-4.69-13.42-10.21Z" fill="#6fbd37"></path>
            <path d="M314.91 270.57c.91 4 3.7 6.15 8.54 6.15 5.15 0 7.21-2.36 7.21-5.5 0-3.36-1.7-5.17-8.47-6.8-8.42-2-11.17-4.95-11.17-9.8 0-5.33 3.94-9.51 11.78-9.51 8.45 0 11.91 4.81 12.38 9.47H330c-.57-2.91-2.36-5.4-7.32-5.4-4 0-6.28 1.78-6.28 4.93s1.87 4.33 7.87 5.77c9.94 2.4 11.77 6.24 11.77 10.78 0 5.74-4.27 10.12-12.89 10.12s-12.68-4.69-13.42-10.21Z" fill="#6fbd37"></path>
            <path d="M368.62 264.34h-17.14V276h18.84l-.65 4.37h-23.24v-34.76h23V250h-17.95v10h17.14Z" fill="#6fbd37"></path>
            <path d="M380.34 245.61H393c9.83 0 16.44 6.65 16.44 17s-6.44 17.74-16.62 17.74h-12.48Zm5.15 30.39h7c7.89 0 11.6-5.68 11.6-13.33 0-6.64-3.4-12.76-11.57-12.76h-7Z" fill="#6fbd37"></path>
            <path d="M446.85 270c0 7.87-3 10.83-9.15 10.83a18.39 18.39 0 0 1-3.86-.37v-4.25a21.77 21.77 0 0 0 3.26.23c4 0 4.59-2.95 4.59-6.21v-24.62h5.16Z" fill="#ec8625"></path>
            <path d="M464.31 245.61v20.86c0 7.91 4.29 10.08 8.61 10.08 5 0 8.52-2.38 8.52-10.08v-20.86h5.18v20.59c0 11.39-6.37 14.58-13.8 14.58s-13.72-3.43-13.72-14.29v-20.88Z" fill="#ec8625"></path>
            <path d="M504.54 245.61v34.73h-5.16v-34.73Z" fill="#ec8625"></path>
            <path d="M545.31 270.33c-1.51 6-6 10.45-14 10.45-10.51 0-15.74-7.86-15.74-17.69 0-9.45 5.27-18 15.94-18 8.4 0 12.85 4.81 13.84 10.62h-5.16c-1.14-3.58-3.53-6.4-8.87-6.4-7.38 0-10.37 6.7-10.37 13.6 0 6.63 2.8 13.62 10.57 13.62 5.27 0 7.46-3.1 8.65-6.22Z" fill="#ec8625"></path>
            <path d="M578 264.34h-17.13V276h18.85l-.65 4.37h-23.24v-34.76h23V250h-18v10H578Z" fill="#ec8625"></path>
            <path d="M592.86 270.57c.91 4 3.7 6.15 8.54 6.15 5.15 0 7.21-2.36 7.21-5.5 0-3.36-1.7-5.17-8.47-6.8-8.42-2-11.17-4.95-11.17-9.8 0-5.33 3.94-9.51 11.78-9.51 8.45 0 11.91 4.81 12.38 9.47h-5.23c-.57-2.91-2.37-5.4-7.32-5.4-4 0-6.28 1.78-6.28 4.93s1.87 4.33 7.87 5.77c9.94 2.4 11.77 6.24 11.77 10.78 0 5.74-4.27 10.12-12.89 10.12s-12.68-4.69-13.42-10.21Z" fill="#ec8625"></path>
            <path d="m671.78 258.4-8.95 12.94c-4.11 6-7 9.5-13.65 9.5S639 276.1 639 271.57s2.68-7.7 9.44-11.16c4.29-2.23 7-3.92 7-7.17 0-2.3-1.36-4.47-4.14-4.47-2.56 0-4.29 1.7-4.29 4.62 0 2.16 1.64 4 4.12 6.39l21 20.56h-6.57L647 262.07c-2.66-2.58-4.58-5-4.58-8.4 0-4.61 3.26-8.56 8.93-8.56 5.34 0 8.62 3.72 8.62 8.06 0 4-2.67 6.44-8.89 9.79-5.71 2.86-7 5.31-7 8.07a5.46 5.46 0 0 0 5.49 5.52c3.84 0 5.91-1.65 10.25-8.08l6.74-10.07Z" fill="#6fbd37"></path>
            <path d="M701.76 270.57c.91 4 3.7 6.15 8.54 6.15 5.15 0 7.21-2.36 7.21-5.5 0-3.36-1.7-5.17-8.47-6.8-8.43-2-11.17-4.95-11.17-9.8 0-5.33 3.94-9.51 11.78-9.51 8.45 0 11.91 4.81 12.38 9.47h-5.23c-.58-2.91-2.37-5.4-7.32-5.4-4 0-6.28 1.78-6.28 4.93s1.87 4.33 7.87 5.77c9.94 2.4 11.77 6.24 11.77 10.78 0 5.74-4.27 10.12-12.89 10.12s-12.68-4.69-13.42-10.21Z" fill="#ec8625"></path>
            <path d="M762.91 265.87c0-6.35.07-12.92.22-16.63h-.19c-1.52 5.91-6.73 20.18-10.59 31.1h-4.56c-2.92-9-8.32-25-9.87-31.17h-.17c.27 4 .4 11.63.4 17.58v13.59h-4.82v-34.73H741c3.71 10.45 8.19 23.88 9.36 28.45h.07c.83-3.58 6.17-18.26 10-28.45h7.46v34.73h-5Z" fill="#ec8625"></path>
            <path d="M811.39 262.79c0 9.57-5.44 18-16.45 18-10.35 0-16.05-7.91-16.05-17.87s5.91-17.86 16.47-17.86c9.85.05 16.03 7.35 16.03 17.73Zm-27.13 0c0 7.37 3.68 13.68 10.9 13.68 7.8 0 10.85-6.45 10.85-13.64s-3.46-13.41-10.86-13.41c-7.57.03-10.89 6.11-10.89 13.4Z" fill="#ec8625"></path>
            <path d="M853 262.79c0 9.57-5.44 18-16.45 18-10.35 0-16-7.91-16-17.87s5.91-17.86 16.47-17.86c9.79.05 15.98 7.35 15.98 17.73Zm-27.13 0c0 7.37 3.68 13.68 10.9 13.68 7.8 0 10.85-6.45 10.85-13.64s-3.46-13.41-10.86-13.41c-7.58.03-10.9 6.11-10.9 13.4Z" fill="#ec8625"></path>
            <path d="M870.2 250h-11.1v-4.36h27.37V250h-11.09v30.37h-5.18Z" fill="#ec8625"></path>
            <path d="M895.28 245.61h5.16v14.32h17.32v-14.32h5.15v34.73h-5.15v-16h-17.32v16h-5.16Z" fill="#ec8625"></path>
            <path d="M941.19 245.61v34.73H936v-34.73Z" fill="#ec8625"></path>
            <path d="M976.52 264.34h-17.15V276h18.85l-.65 4.37h-23.24v-34.76h23V250h-18v10h17.15Z" fill="#ec8625"></path>
            <path d="M991.36 270.57c.91 4 3.69 6.15 8.53 6.15 5.15 0 7.22-2.36 7.22-5.5 0-3.36-1.71-5.17-8.48-6.8-8.42-2-11.16-4.95-11.16-9.8 0-5.33 3.94-9.51 11.78-9.51 8.45 0 11.9 4.81 12.38 9.47h-5.24c-.57-2.91-2.36-5.4-7.32-5.4-4 0-6.27 1.78-6.27 4.93s1.87 4.33 7.86 5.77c9.94 2.4 11.78 6.24 11.78 10.78 0 5.74-4.27 10.12-12.9 10.12s-12.67-4.69-13.42-10.21Z" fill="#ec8625"></path>
            <path d="M1001.47 203.42a53.72 53.72 0 0 0 .53-5.36c0-14.66.07-29.33 0-44 0-3.28-.68-6.56-.72-9.84 0-2.45.61-4.9.67-7.35.07-2.64-.24-5.28-.3-7.93-.07-3-.11-5.9 0-8.85 0-2.3.7-4.68.32-6.9a53.45 53.45 0 0 1 .07-18.71 19.44 19.44 0 0 0 0-3.5V28.49c0-3.8-.41-7.6-.65-11.81a14.34 14.34 0 0 0-2.35-.6 31.23 31.23 0 0 0-3.49 0H454a2.44 2.44 0 0 0 0 .26c-3.22-.15-6.43-.22-9.65-.26H17.27v196.39c4.11.69 979 .83 984.81.1-.13-3-.27-6.11-.41-9.18Z" fill="none"></path>
            <path d="M1017.13 1.07a1 1 0 0 0-.13-.47 2.31 2.31 0 0 0-.35-.35 4.07 4.07 0 0 0-.44-.18 4.1 4.1 0 0 0-.49-.06h-634 .06H.5C-.28 6.22-.09 226 .65 229.7h1016.23a9.31 9.31 0 0 0 .34-1.65q-.03-113.49-.09-226.98ZM17.27 212.47V16h427.08c3.22 0 6.43.11 9.65.26a2.44 2.44 0 0 1 0-.26h541.5a31.23 31.23 0 0 1 3.49 0 14.34 14.34 0 0 1 2.35.6c.24 4.21.64 8 .65 11.81.06 20.83 0 41.66 0 62.49a19.44 19.44 0 0 1 0 3.5 53.45 53.45 0 0 0-.07 18.71c.38 2.22-.28 4.6-.32 6.9-.06 3 0 5.9 0 8.85.06 2.65.37 5.29.3 7.93-.06 2.45-.7 4.9-.67 7.35 0 3.28.7 6.56.72 9.84.08 14.67 0 29.34 0 44a53.72 53.72 0 0 1-.53 5.36h.2c.14 3.07.28 6.15.41 9.18-5.73.78-980.65.64-984.76-.05Z" fill="#6fbd37"></path>
        </g>
    </g>
</svg>